<svg width="545" height="78" viewBox="0 0 545 78" fill="none" xmlns="http://www.w3.org/2000/svg">
<path fill-rule="evenodd" clip-rule="evenodd" d="M486.479 15.8135C497.525 15.8135 506.734 23.6753 508.818 34.1084H503.646V41.0689H509.127C507.894 52.487 498.225 61.3775 486.479 61.3775C473.897 61.3775 463.697 51.1775 463.697 38.5955C463.697 26.0131 473.897 15.8135 486.479 15.8135ZM493.409 51.0621H502.257L491.591 23.3071H482.744L472.078 51.0621H480.926L482.34 47.3454H491.995L493.409 51.0621ZM484.562 41.5681L487.188 34.8213L489.773 41.5681H484.562Z" fill="#920000"/>
<path d="M524.235 35.1845H517.044V27.8319H511.954V35.1845H504.722V39.9924H511.954V47.3449H517.044V39.9924H524.235V35.1845Z" fill="black"/>
<path d="M544.715 35.1845H537.524V27.8319H532.434V35.1845H525.202V39.9924H532.434V47.3449H537.524V39.9924H544.715V35.1845Z" fill="black"/>
<path fill-rule="evenodd" clip-rule="evenodd" d="M482.744 23.307L472.078 51.0624H480.926L482.34 47.3453H491.995L493.409 51.0624H502.257L491.591 23.307H482.744ZM487.187 34.8212L489.773 41.5679H484.562L487.187 34.8212Z" fill="white"/>
<path d="M365.771 38.0179H371.934V26.3263L380.449 38.0179H386.612V16.1915H380.449V27.8831L371.934 16.1915H365.771V38.0179ZM405.325 38.0179H412.282L403.895 16.1915H396.938L388.55 38.0179H395.508L396.62 35.095H404.213L405.325 38.0179ZM398.367 30.5518L400.432 25.2461L402.466 30.5518H398.367ZM429.121 38.0179H436.078L427.691 16.1915H420.734L412.346 38.0179H419.304L420.416 35.095H428.009L429.121 38.0179ZM422.163 30.5518L424.228 25.2461L426.262 30.5518H422.163ZM449.073 38.3989C452.567 38.3989 455.744 36.906 457.937 34.5227L453.425 30.5835C452.377 31.9179 450.82 32.8073 449.073 32.8073C446.086 32.8073 443.545 30.202 443.545 27.0888C443.545 24.0069 446.086 21.4016 449.073 21.4016C450.788 21.4016 452.377 22.2915 453.393 23.6254L457.937 19.6545C455.744 17.3034 452.567 15.81 449.073 15.81C442.623 15.81 437.19 20.9571 437.19 27.0888C437.19 33.2205 442.623 38.3989 449.073 38.3989Z" fill="black"/>
<path d="M375.008 53.3354H380.299V57.7333C378.929 58.7786 376.942 59.4492 375.223 59.4492C371.248 59.4492 367.891 55.9632 367.891 51.8333C367.891 47.7305 371.248 44.2445 375.223 44.2445C377.237 44.2445 379.627 45.156 380.97 46.5777L382.393 45.1293C380.675 43.3863 377.774 42.3135 375.223 42.3135C370.121 42.3135 365.77 46.6576 365.77 51.8333C365.77 57.0089 370.121 61.3797 375.223 61.3797C377.774 61.3797 380.675 60.2807 382.393 58.5644V51.3506H375.008V53.3354ZM400.789 48.5349C400.789 45.076 397.808 42.6357 393.994 42.6357H386.502V61.058H388.597V54.4349H393.484L398.157 61.058H400.548L395.767 54.2469C398.694 53.6301 400.789 51.4316 400.789 48.5349ZM388.597 44.6196H393.618C396.626 44.6196 398.667 46.0679 398.667 48.5349C398.667 51.0022 396.626 52.4501 393.618 52.4501H388.597V44.6196ZM418.969 61.058H421.252L413.115 42.6357H410.833L402.696 61.058H404.978L406.831 56.8752H417.117L418.969 61.058ZM407.691 54.8904L411.988 45.2098L416.257 54.8904H407.691ZM424.636 61.058H430.866C436.721 61.058 440.856 57.224 440.856 51.8333C440.856 46.4434 436.721 42.6357 430.866 42.6357H424.636V61.058ZM426.731 59.1541V44.5391H430.866C435.485 44.5391 438.735 47.5696 438.735 51.8333C438.735 56.1241 435.485 59.1541 430.866 59.1541H426.731ZM457.937 44.6196V42.6357H444.697V61.058H457.937V59.0737H446.819V52.6648H456.836V50.6805H446.819V44.6196H457.937Z" fill="black"/>
<path d="M355.744 0V77.6566H355.105V0H355.744Z" fill="black"/>
<path d="M4.57764e-05 20.0644H17.8416C21.7277 20.0644 24.6365 20.9854 26.5759 22.8357C28.5071 24.686 29.4765 27.3203 29.4765 30.7386C29.4765 34.2456 28.4185 36.9927 26.3091 38.964C24.2002 40.9436 20.9766 41.9295 16.6455 41.9295H10.7629V54.7771H4.57764e-05V20.0644ZM10.7629 34.8997H13.4049C15.4901 34.8997 16.9525 34.5361 17.7927 33.817C18.6333 33.0979 19.0532 32.1768 19.0532 31.0533C19.0532 29.9628 18.69 29.0413 17.9544 28.2815C17.2271 27.5222 15.8538 27.1426 13.8335 27.1426H10.7629V34.8997Z" fill="black"/>
<path d="M39.6091 37.7599L30.3973 36.7909C30.745 35.1745 31.2456 33.9063 31.9004 32.9847C32.5551 32.0555 33.4921 31.2555 34.7283 30.5766C35.6092 30.0841 36.8213 29.7039 38.3645 29.4376C39.9078 29.1708 41.5804 29.0338 43.3823 29.0338C46.2669 29.0338 48.5783 29.195 50.3317 29.5185C52.0769 29.8415 53.5394 30.5204 54.7025 31.5465C55.5272 32.2579 56.1732 33.2675 56.6424 34.5682C57.1189 35.8694 57.3533 37.1139 57.3533 38.3012V49.4201C57.3533 50.6084 57.4259 51.5371 57.5794 52.2078C57.7247 52.8785 58.0564 53.7352 58.5571 54.7773H49.5318C49.1681 54.1308 48.9337 53.646 48.8204 53.3066C48.7153 52.9671 48.6025 52.4422 48.4892 51.7231C47.2287 52.9347 45.9764 53.7996 44.7237 54.3167C43.0186 55.0116 41.039 55.3593 38.7849 55.3593C35.7869 55.3593 33.508 54.6639 31.957 53.2664C30.3973 51.8766 29.6215 50.1556 29.6215 48.1188C29.6215 46.2042 30.1793 44.6284 31.3023 43.3921C32.4253 42.1559 34.494 41.2348 37.5079 40.6368C41.1199 39.9099 43.4632 39.4005 44.5377 39.1017C45.6122 38.8107 46.7517 38.4311 47.9478 37.9546C47.9478 36.7667 47.7052 35.9425 47.2127 35.4655C46.7275 34.9885 45.8708 34.7547 44.6433 34.7547C43.067 34.7547 41.8874 35.0051 41.0957 35.514C40.4817 35.9184 39.9887 36.6611 39.6091 37.7599ZM47.9478 42.8023C46.6229 43.2788 45.2408 43.6997 43.7949 44.0711C41.839 44.596 40.595 45.1137 40.0773 45.6226C39.5359 46.1475 39.2696 46.7456 39.2696 47.4162C39.2696 48.1838 39.5359 48.8143 40.0619 49.299C40.595 49.7837 41.3703 50.0263 42.3964 50.0263C43.4714 50.0263 44.4733 49.7595 45.4026 49.2341C46.3236 48.7092 46.9778 48.0704 47.3657 47.3112C47.7541 46.5519 47.9478 45.5659 47.9478 44.3539V42.8023Z" fill="black"/>
<path d="M60.4067 29.6154H69.4403V33.7198C70.3129 31.9344 71.2098 30.7064 72.1308 30.0352C73.0601 29.365 74.199 29.0338 75.5568 29.0338C76.9873 29.0338 78.5466 29.4778 80.2351 30.3669L77.2459 37.2108C76.1065 36.7343 75.2014 36.4999 74.5384 36.4999C73.2785 36.4999 72.2925 37.0248 71.5976 38.0674C70.6035 39.538 70.1028 42.2934 70.1028 46.3252V54.7773H60.4067V29.6154Z" fill="black"/>
<path d="M107.093 54.7776H98.0838V50.7216C96.7424 52.3936 95.3928 53.5815 94.0355 54.2929C92.6699 55.0037 90.9973 55.3597 89.0095 55.3597C86.3592 55.3597 84.2905 54.5679 82.7791 52.9757C81.2765 51.3923 80.525 48.9434 80.525 45.6389V29.6157H90.221V43.4811C90.221 45.0573 90.5121 46.1803 91.0941 46.851C91.6757 47.5134 92.4916 47.8446 93.5425 47.8446C94.6819 47.8446 95.6194 47.4006 96.3545 46.5198C97.0813 45.6307 97.445 44.039 97.445 41.7441V29.6157H107.093V54.7776Z" fill="black"/>
<path d="M110.486 20.0644H120.134V54.7771H110.486V20.0644Z" fill="black"/>
<path d="M132.587 15.81C134.085 15.81 135.547 16.1937 136.978 16.9649C138.404 17.7329 139.52 18.8358 140.315 20.2662C141.111 21.7003 141.511 23.1952 141.511 24.7462C141.511 26.2859 141.119 27.7684 140.331 29.1865C139.547 30.6087 138.449 31.7116 137.03 32.4951C135.612 33.2832 134.13 33.6753 132.587 33.6753C131.039 33.6753 129.556 33.2832 128.138 32.4951C126.72 31.7116 125.617 30.6087 124.829 29.1865C124.041 27.7684 123.646 26.2859 123.646 24.7462C123.646 23.1952 124.045 21.7003 124.845 20.2662C125.649 18.8358 126.765 17.7329 128.191 16.9649C129.621 16.1937 131.083 15.81 132.587 15.81ZM132.587 17.2884C131.33 17.2884 130.106 17.6114 128.918 18.2537C127.73 18.8961 126.801 19.8176 126.13 21.0137C125.459 22.2093 125.124 23.4538 125.124 24.7462C125.124 26.0356 125.455 27.2677 126.114 28.4473C126.772 29.6269 127.693 30.5485 128.878 31.2068C130.061 31.8657 131.298 32.1964 132.587 32.1964C133.871 32.1964 135.108 31.8657 136.291 31.2068C137.475 30.5485 138.396 29.6269 139.051 28.4473C139.705 27.2677 140.032 26.0356 140.032 24.7462C140.032 23.4538 139.697 22.2093 139.03 21.0137C138.364 19.8176 137.435 18.8961 136.243 18.2537C135.051 17.6114 133.831 17.2884 132.587 17.2884ZM128.663 29.6759V20.0762H131.968C133.099 20.0762 133.916 20.1648 134.42 20.343C134.93 20.5202 135.33 20.8272 135.632 21.2718C135.931 21.7122 136.081 22.1809 136.081 22.678C136.081 23.377 135.831 23.9911 135.325 24.5082C134.825 25.0295 134.158 25.32 133.326 25.3849C133.665 25.5266 133.94 25.6956 134.142 25.8939C134.53 26.2694 135.002 26.904 135.564 27.7967L136.735 29.6759H134.853L133.996 28.1645C133.326 26.9725 132.78 26.2251 132.368 25.9258C132.085 25.7079 131.673 25.5987 131.128 25.6034H130.215V29.6759H128.663ZM130.215 24.2698H132.097C132.999 24.2698 133.613 24.1363 133.94 23.8695C134.267 23.6032 134.433 23.2472 134.433 22.8114C134.433 22.5281 134.352 22.2742 134.194 22.0516C134.037 21.8255 133.818 21.6596 133.54 21.551C133.257 21.4412 132.74 21.3851 131.98 21.3851H130.215V24.2698Z" fill="black"/>
<path d="M171.231 20.0644H175.525V38.8022C175.525 42.0557 175.155 44.6452 174.415 46.563C173.676 48.4808 172.348 50.0354 170.424 51.2356C168.499 52.4441 165.979 53.0406 162.855 53.0406C159.822 53.0406 157.332 52.5188 155.407 51.47C153.476 50.4284 152.095 48.9104 151.272 46.9251C150.442 44.9393 150.035 42.237 150.035 38.8022V20.0644H154.321V38.7791C154.321 41.5952 154.585 43.6716 155.105 44.9996C155.626 46.3363 156.531 47.3625 157.8 48.0877C159.075 48.8125 160.636 49.1751 162.478 49.1751C165.632 49.1751 167.881 48.4576 169.224 47.023C170.56 45.5961 171.231 42.8485 171.231 38.7791V20.0644ZM182.297 52.4889V29.0027H185.873V32.3396C187.602 29.7573 190.092 28.4664 193.344 28.4664C194.762 28.4664 196.06 28.7235 197.245 29.2288C198.437 29.7429 199.32 30.4064 199.908 31.2373C200.505 32.0604 200.912 33.0417 201.153 34.1739C201.297 34.9136 201.373 36.2051 201.373 38.0471V52.4889H197.388V38.198C197.388 36.5821 197.237 35.3669 196.928 34.5587C196.619 33.7587 196.068 33.1174 195.283 32.642C194.491 32.1583 193.57 31.9167 192.506 31.9167C190.809 31.9167 189.353 32.4606 188.114 33.5326C186.885 34.6123 186.273 36.6501 186.273 39.6625V52.4889H182.297ZM207.632 24.6468V20.0644H211.616V24.6468H207.632ZM207.632 52.4889V29.0027H211.616V52.4889H207.632ZM224.335 52.4889L215.4 29.0027H219.603L224.644 43.0674C225.187 44.5844 225.686 46.1627 226.146 47.8008C226.501 46.563 226.991 45.0754 227.625 43.3312L232.846 29.0027H236.936L228.048 52.4889H224.335ZM256.657 44.9249L260.77 45.4303C260.121 47.8384 258.921 49.7032 257.171 51.0322C255.412 52.3529 253.171 53.0174 250.447 53.0174C247.014 53.0174 244.29 51.9609 242.283 49.8468C240.268 47.7328 239.265 44.7657 239.265 40.9461C239.265 36.9895 240.283 33.9251 242.313 31.7431C244.35 29.5616 246.984 28.4664 250.228 28.4664C253.368 28.4664 255.933 29.5389 257.918 31.6751C259.91 33.8118 260.906 36.8237 260.906 40.6968C260.906 40.9384 260.899 41.2933 260.883 41.7616H243.377C243.52 44.3428 244.253 46.3214 245.566 47.6875C246.879 49.0618 248.508 49.7484 250.47 49.7484C251.926 49.7484 253.171 49.3637 254.205 48.5936C255.239 47.8312 256.054 46.6078 256.657 44.9249ZM243.596 38.485H256.703C256.529 36.5141 256.024 35.0275 255.201 34.0456C253.933 32.5132 252.288 31.7431 250.274 31.7431C248.448 31.7431 246.909 32.355 245.664 33.5779C244.418 34.8003 243.732 36.4394 243.596 38.485ZM265.867 52.4889V29.0027H269.444V32.5585C270.358 30.8973 271.202 29.7954 271.979 29.2674C272.749 28.7389 273.602 28.4664 274.53 28.4664C275.873 28.4664 277.232 28.8971 278.62 29.7506L277.246 33.4491C276.281 32.8681 275.307 32.5812 274.333 32.5812C273.458 32.5812 272.681 32.8449 271.987 33.3667C271.293 33.8953 270.802 34.619 270.508 35.5482C270.063 36.9597 269.844 38.5076 269.844 40.1905V52.4889H265.867ZM279.537 45.4756L283.468 44.8569C283.687 46.4342 284.306 47.6427 285.317 48.4875C286.321 49.3256 287.732 49.7484 289.55 49.7484C291.377 49.7484 292.735 49.3714 293.618 48.6312C294.501 47.8843 294.945 47.008 294.945 46.0113C294.945 45.1062 294.553 44.4031 293.768 43.8823C293.225 43.5279 291.867 43.0828 289.701 42.5389C286.789 41.7987 284.759 41.1651 283.634 40.6211C282.51 40.0854 281.65 39.338 281.07 38.3866C280.488 37.4357 280.193 36.3863 280.193 35.2387C280.193 34.1894 280.435 33.223 280.918 32.3319C281.394 31.4335 282.05 30.6943 282.872 30.1056C283.492 29.6517 284.336 29.2597 285.401 28.9424C286.472 28.6256 287.619 28.4664 288.841 28.4664C290.682 28.4664 292.297 28.7389 293.693 29.2674C295.089 29.7954 296.116 30.513 296.779 31.4181C297.443 32.3319 297.896 33.5404 298.145 35.0574L294.259 35.5936C294.078 34.3851 293.565 33.4414 292.72 32.7625C291.875 32.0825 290.674 31.7431 289.128 31.7431C287.301 31.7431 285.996 32.0455 285.22 32.6492C284.435 33.2529 284.042 33.9622 284.042 34.7704C284.042 35.2912 284.208 35.7517 284.533 36.1669C284.857 36.5976 285.363 36.9447 286.056 37.2311C286.457 37.3754 287.626 37.7148 289.573 38.2428C292.388 38.9985 294.349 39.6095 295.459 40.0926C296.576 40.5686 297.451 41.2702 298.084 42.184C298.719 43.0973 299.035 44.2295 299.035 45.5884C299.035 46.9174 298.643 48.1635 297.874 49.341C297.096 50.5109 295.98 51.4169 294.523 52.0588C293.067 52.7001 291.414 53.0174 289.573 53.0174C286.517 53.0174 284.193 52.3833 282.593 51.1151C280.994 49.8468 279.975 47.9667 279.537 45.4756ZM303.922 24.6468V20.0644H307.906V24.6468H303.922ZM303.922 52.4889V29.0027H307.906V52.4889H303.922ZM322.79 48.9258L323.363 52.4441C322.247 52.6779 321.243 52.799 320.361 52.799C318.911 52.799 317.795 52.5723 316.995 52.1113C316.202 51.6585 315.645 51.0543 315.32 50.3074C314.996 49.5672 314.829 47.9971 314.829 45.6116V32.098H311.91V29.0027H314.829V23.1819L318.791 20.7969V29.0027H322.79V32.098H318.791V45.83C318.791 46.9705 318.858 47.6952 318.994 48.0197C319.138 48.3443 319.364 48.6013 319.681 48.797C319.998 48.9861 320.451 49.084 321.04 49.084C321.485 49.084 322.066 49.0314 322.79 48.9258ZM326.643 61.5328L326.197 57.7961C327.073 58.0305 327.828 58.1505 328.477 58.1505C329.36 58.1505 330.069 58.0001 330.597 57.7055C331.133 57.4114 331.563 57.0039 331.902 56.4676C332.159 56.0756 332.559 55.0861 333.117 53.5083C333.193 53.2822 333.313 52.9648 333.471 52.5342L324.568 29.0027H328.853L333.743 42.5997C334.37 44.3284 334.943 46.1401 335.441 48.0424C335.901 46.2158 336.445 44.434 337.079 42.6898L342.097 29.0027H346.074L337.146 52.8891C336.189 55.4714 335.441 57.2455 334.913 58.219C334.204 59.5326 333.397 60.4912 332.483 61.1032C331.563 61.7141 330.476 62.0237 329.208 62.0237C328.439 62.0237 327.586 61.8578 326.643 61.5328Z" fill="black"/>
</svg>
